HIERARCHY
ROOT Hips
{
  OFFSET 48.726 92.3249 9.9414
  CHANNELS 6 Xposition Yposition Zposition Zrotation Xrotation Yrotation
  JOINT spine
  {
    OFFSET 0 7.4756 0.429885
    CHANNELS 3 Zrotation Xrotation Yrotation
    JOINT spine1
    {
      OFFSET 0 9.92301 0
      CHANNELS 3 Zrotation Xrotation Yrotation
      JOINT spine2
      {
        OFFSET 0 9.50804 0
        CHANNELS 3 Zrotation Xrotation Yrotation
        JOINT Neck
        {
          OFFSET 0 24.4111 1.16384
          CHANNELS 3 Zrotation Xrotation Yrotation
          JOINT Head
          {
            OFFSET 0 7.37523 0
            CHANNELS 3 Zrotation Xrotation Yrotation
            End Site
            {
              OFFSET 0 17.8522 -5.88741
            }
          }
        }
        JOINT RightShoulder
        {
          OFFSET -4.00356 10.2679 -0.557468
          CHANNELS 3 Zrotation Xrotation Yrotation
          JOINT RightArm
          {
            OFFSET 0 13.4673 0
            CHANNELS 3 Zrotation Xrotation Yrotation
            JOINT RightArmRoll
            {
              OFFSET 0 6.79858 0
              CHANNELS 3 Zrotation Xrotation Yrotation
              JOINT RightForeArm
              {
                OFFSET 0 19.8018 0
                CHANNELS 3 Zrotation Xrotation Yrotation
                JOINT RightForeArmRoll
                {
                  OFFSET 0 7.62906 0
                  CHANNELS 3 Zrotation Xrotation Yrotation
                  JOINT RightHand
                  {
                    OFFSET 0 15.3098 0
                    CHANNELS 3 Zrotation Xrotation Yrotation
                    End Site
                    {
                      OFFSET 0 0 0
                    }
                  }
                }
              }
            }
          }
        }
        JOINT LeftShoulder
        {
          OFFSET 4.00356 10.2679 -0.557468
          CHANNELS 3 Zrotation Xrotation Yrotation
          JOINT LeftArm
          {
            OFFSET 0 13.4673 0
            CHANNELS 3 Zrotation Xrotation Yrotation
            JOINT LeftArmRoll
            {
              OFFSET 0 6.79858 0
              CHANNELS 3 Zrotation Xrotation Yrotation
              JOINT LeftForeArm
              {
                OFFSET 0 19.8018 0
                CHANNELS 3 Zrotation Xrotation Yrotation
                JOINT LeftForeArmRoll
                {
                  OFFSET 0 7.62905 0
                  CHANNELS 3 Zrotation Xrotation Yrotation
                  JOINT LeftHand
                  {
                    OFFSET 0 15.3098 0
                    CHANNELS 3 Zrotation Xrotation Yrotation
                    End Site
                    {
                      OFFSET 0 0 0
                    }
                  }
                }
              }
            }
          }
        }
      }
    }
  }
  JOINT RightUpLeg
  {
    OFFSET -6.62609 -1.21505 -1.01927
    CHANNELS 3 Zrotation Xrotation Yrotation
    JOINT RightUpLegRoll
    {
      OFFSET 0 17.9517 0
      CHANNELS 3 Zrotation Xrotation Yrotation
      JOINT RightLeg
      {
        OFFSET 0 -22.2304 0
        CHANNELS 3 Zrotation Xrotation Yrotation
        JOINT RightLegRoll
        {
          OFFSET 0 22.3032 0
          CHANNELS 3 Zrotation Xrotation Yrotation
          JOINT RightFoot
          {
            OFFSET 0 18.5636 0
            CHANNELS 3 Zrotation Xrotation Yrotation
            JOINT RightToeBase
            {
              OFFSET 0 15.5183 0
              CHANNELS 3 Zrotation Xrotation Yrotation
              End Site
              {
                OFFSET 0.00657761 7.51539 -0.866263
              }
            }
          }
        }
      }
    }
  }
  JOINT LeftUpLeg
  {
    OFFSET 6.62609 -1.21505 -1.01927
    CHANNELS 3 Zrotation Xrotation Yrotation
    JOINT LeftUpLegRoll
    {
      OFFSET 0 17.9518 0
      CHANNELS 3 Zrotation Xrotation Yrotation
      JOINT LeftLeg
      {
        OFFSET 0 22.2303 0
        CHANNELS 3 Zrotation Xrotation Yrotation
        JOINT LeftLegRoll
        {
          OFFSET 0 22.5093 0
          CHANNELS 3 Zrotation Xrotation Yrotation
          JOINT LeftFoot
          {
            OFFSET 0 18.3575 0
            CHANNELS 3 Zrotation Xrotation Yrotation
            JOINT LeftToeBase
            {
              OFFSET 0 15.5183 0
              CHANNELS 3 Zrotation Xrotation Yrotation
              End Site
              {
                OFFSET -0.029478 7.51538 -0.866263
              }
            }
          }
        }
      }
    }
  }
}
MOTION
Frames: 7
Frame Time: 0.00208333
47.7135 92.2964 10.9445 -2.03739 -7.8449 1.99398 0.456879 -1.13534 -0.0666142 0.920277 1.74218 -0.184644 0.923563 3.38712 -0.20031 -7.79548 20.9589 -2.27817 8.34707 3.18258 -4.30401 72.3287 -2.4607 -2.73238 97.5334 6.26882 18.51 -1.39469e-007 -1.5612e-006 -5.29896e-006 8.66556 0.731083 -0.866728 1.0599e-006 1.61212e-006 -3.00743 8.02903 -4.95145 0.697682 -73.9956 0.783675 1.42492 -97.7082 3.94841 -22.5206 -5.26271e-007 3.83688e-006 -3.46823e-006 -4.77851 0.0412816 0.893916 -1.38484e-006 1.12841e-006 3.02676 -8.02958 -4.95142 -0.697643 -173.15 -2.93704 -2.67106 180 7.01525e-015 178.83 176.021 11.804 179.973 3.5048e-006 7.71499e-007 0.160297 -20.6219 70.4759 21.8433 8.13649 25.2327 -3.48774 -168.274 3.8378 -6.2002 4.54188e-006 -4.6773e-006 -1.26257 -3.93309 -27.5588 -0.262775 -6.46441e-007 -1.89507e-007 -0.699665 20.7729 70.8141 -22.1668 -8.12313 28.0336 -0.247546 
47.7139 92.2996 10.9575 -2.04087 -7.8479 1.97584 0.456989 -1.13294 -0.0656511 0.919995 1.74619 -0.183633 0.923248 3.39112 -0.199285 -7.86998 20.9136 -2.25413 8.38369 3.19087 -4.29906 72.3223 -2.45249 -2.72802 97.5882 6.29851 18.6575 -1.39469e-007 -1.5612e-006 -5.29896e-006 8.55152 0.739052 -0.87629 1.0599e-006 1.61212e-006 -3.00737 8.02903 -4.95145 0.697682 -73.9847 0.758565 1.43485 -97.7114 3.96058 -22.4568 -5.26271e-007 3.83688e-006 -3.46823e-006 -4.82972 0.0412783 0.890792 -1.38484e-006 1.12842e-006 3.02655 -8.02958 -4.95142 -0.697643 -173.147 -2.93316 -2.67291 180 7.01525e-015 178.829 176.021 11.81 179.973 3.5048e-006 7.71499e-007 0.160331 -20.6222 70.476 21.8432 8.13649 25.2327 -3.48774 -168.272 3.82984 -6.20265 4.54188e-006 -4.6773e-006 -1.26297 -3.93507 -27.5533 -0.262883 -6.46441e-007 -1.89507e-007 -0.699665 20.7686 70.8102 -22.1624 -8.12317 28.0342 -0.249071 
47.7065 92.3016 10.9509 -2.04451 -7.85028 1.95778 0.457152 -1.13076 -0.0645927 0.919802 1.74975 -0.182499 0.92302 3.39468 -0.198137 -7.94537 20.8698 -2.22992 8.42068 3.19838 -4.29425 72.3165 -2.44319 -2.7232 97.6445 6.32339 18.8024 -1.39469e-007 -1.5612e-006 -5.29896e-006 8.43981 0.749014 -0.885738 1.0599e-006 1.61212e-006 -3.00729 8.02903 -4.95145 0.697682 -73.9736 0.733627 1.44468 -97.7147 3.97318 -22.3919 -5.26271e-007 3.83688e-006 -3.46823e-006 -4.88183 0.0412749 0.887719 -1.38484e-006 1.12841e-006 3.02635 -8.02958 -4.95142 -0.697643 -173.144 -2.92792 -2.67493 180 7.01524e-015 178.829 176.021 11.8169 179.973 3.5048e-006 7.71499e-007 0.160381 -20.6232 70.477 21.8439 8.13649 25.2327 -3.48774 -168.27 3.82209 -6.20529 4.54188e-006 -4.6773e-006 -1.26341 -3.93697 -27.5471 -0.262944 -6.46441e-007 -1.89507e-007 -0.699665 20.7638 70.8058 -22.1574 -8.12321 28.0348 -0.250701 
47.7033 92.3058 10.9293 -2.04826 -7.85222 1.93977 0.457353 -1.12871 -0.0634676 0.919671 1.75299 -0.181277 0.922853 3.39793 -0.196904 -8.02137 20.827 -2.20559 8.45793 3.20532 -4.28954 72.3112 -2.43313 -2.71806 97.7017 6.34487 18.9455 -1.39469e-007 -1.5612e-006 -5.29896e-006 8.32972 0.760371 -0.895107 1.0599e-006 1.61212e-006 -3.00718 8.02903 -4.95145 0.697682 -73.9624 0.708809 1.45444 -97.7179 3.98607 -22.3263 -5.26271e-007 3.83688e-006 -3.46823e-006 -4.93454 0.0412716 0.88468 -1.38484e-006 1.12841e-006 3.02615 -8.02958 -4.95142 -0.697643 -173.141 -2.92172 -2.67706 180 7.01524e-015 178.829 176.021 11.8245 179.973 3.5048e-006 7.71499e-007 0.160443 -20.6247 70.4784 21.8451 8.13649 25.2327 -3.48774 -168.267 3.81448 -6.20805 4.54188e-006 -4.6773e-006 -1.26388 -3.93883 -27.5404 -0.262972 -6.46441e-007 -1.89507e-007 -0.699665 20.7585 70.8009 -22.152 -8.12326 28.0354 -0.252404 
47.7013 92.3059 10.9319 -2.05207 -7.85391 1.92178 0.457576 -1.12676 -0.0623044 0.919575 1.75607 -0.180006 0.92272 3.401 -0.19562 -8.09771 20.7848 -2.18119 8.49534 3.21195 -4.28489 72.3061 -2.42264 -2.71274 97.7593 6.36438 19.0876 -1.39469e-007 -1.5612e-006 -5.29896e-006 8.22057 0.772526 -0.904431 1.0599e-006 1.61212e-006 -3.00706 8.02903 -4.95145 0.697682 -73.9511 0.684059 1.46416 -97.7212 3.99913 -22.2602 -5.26271e-007 3.83688e-006 -3.46823e-006 -4.98762 0.0412682 0.88166 -1.38484e-006 1.12842e-006 3.02596 -8.02958 -4.95142 -0.697643 -173.137 -2.91498 -2.67926 180 7.01524e-015 178.829 176.021 11.8326 179.973 3.5048e-006 7.71499e-007 0.160512 -20.6266 70.4802 21.8466 8.13649 25.2327 -3.48774 -168.265 3.80696 -6.21089 4.54188e-006 -4.6773e-006 -1.26436 -3.94067 -27.5333 -0.262982 -6.46441e-007 -1.89507e-007 -0.699665 20.753 70.7959 -22.1464 -8.12331 28.036 -0.25415 
47.6931 92.3041 10.9268 -2.05591 -7.85554 1.90381 0.457804 -1.12482 -0.0611317 0.919487 1.75909 -0.178722 0.922595 3.40403 -0.194325 -8.1741 20.7427 -2.1568 8.53278 3.21849 -4.28025 72.301 -2.41203 -2.70738 97.817 6.38334 19.2294 -1.39469e-007 -1.5612e-006 -5.29896e-006 8.11165 0.784879 -0.913743 1.0599e-006 1.61212e-006 -3.00695 8.02903 -4.95145 0.697682 -73.9397 0.659326 1.47387 -97.7244 4.01223 -22.194 -5.26271e-007 3.83688e-006 -3.46823e-006 -5.04078 0.0412648 0.878646 -1.38484e-006 1.12842e-006 3.02577 -8.02958 -4.95142 -0.697643 -173.134 -2.9081 -2.68148 180 7.01524e-015 178.829 176.021 11.8407 179.973 3.5048e-006 7.71499e-007 0.160582 -20.6286 70.4821 21.8482 8.13649 25.2327 -3.48774 -168.262 3.79945 -6.21374 4.54188e-006 -4.6773e-006 -1.26485 -3.94249 -27.5262 -0.262986 -6.46441e-007 -1.89507e-007 -0.699665 20.7475 70.7908 -22.1407 -8.12336 28.0367 -0.255906 
47.6909 92.3082 10.9225 -2.05971 -7.85729 1.88582 0.45802 -1.12284 -0.059978 0.919382 1.76221 -0.177464 0.922453 3.40715 -0.193054 -8.25026 20.7004 -2.13245 8.57015 3.2252 -4.27558 72.2959 -2.40164 -2.7021 97.8743 6.40317 19.3718 -1.39469e-007 -1.5612e-006 -5.29896e-006 8.00227 0.796834 -0.923078 1.0599e-006 1.61212e-006 -3.00683 8.02903 -4.95145 0.697682 -73.9284 0.63456 1.4836 -97.7278 4.02526 -22.128 -5.26271e-007 3.83688e-006 -3.46823e-006 -5.09377 0.0412614 0.875622 -1.38484e-006 1.12841e-006 3.02558 -8.02958 -4.95142 -0.697643 -173.13 -2.9015 -2.68366 180 7.01524e-015 178.829 176.021 11.8486 179.973 3.5048e-006 7.71499e-007 0.160648 -20.6304 70.4838 21.8497 8.13649 25.2327 -3.48774 -168.26 3.7919 -6.21656 4.54188e-006 -4.6773e-006 -1.26533 -3.94433 -27.5193 -0.263 -6.46441e-007 -1.89507e-007 -0.699665 20.7421 70.7858 -22.1352 -8.12341 28.0373 -0.257641 
